<?xml version="1.0" encoding="utf-8"?>
<!-- Generator: Adobe Illustrator 25.2.1, SVG Export Plug-In . SVG Version: 6.00 Build 0)  -->
<svg version="1.1" id="Layer_2_1_" xmlns="http://www.w3.org/2000/svg" xmlns:xlink="http://www.w3.org/1999/xlink" x="0px" y="0px"
	 viewBox="0 0 256 256" style="enable-background:new 0 0 256 256;" xml:space="preserve">
<style type="text/css">
	.st0{fill:none;stroke:#000000;stroke-width:4;}
	.st1{fill:none;}
	.st2{fill:none;stroke:#000000;stroke-width:4;stroke-linecap:round;}
	.st3{fill:none;stroke:#000000;stroke-width:4;stroke-linecap:round;stroke-linejoin:round;}
</style>
<g>
	<path class="st0" d="M80.9,164.5c0,0,1.3,1.2,3.2,2.1c1.8,0.9,4.6,2.3,8.1,2.6c3.6,0.4,4.9,0.5,6.8,1s5.7,3,12.1,3.1
		s13.1-1.2,18-4.9c4.9-3.7,8.1-7.5,10.4-11.4c2-3.5,3.9-8.7,4-13.2c0-4.5-1.9-10.3-5.2-15.4c-3.4-5.1-8.9-10.1-14.1-13.4
		c-5.2-3.2-9.5-4.7-15.5-4.7s-13.8,3.1-18.7,8.2c-5.1,5.2-7.1,8.9-8.5,16c-1,4.9-1,10.9,0.2,15c0.8,2.7,2.6,5,2.8,7.5
		c0.1,1.6-0.8,3.2-1.8,4.4c-1,1.2-1.9,1.6-2,2.3C80.8,164.5,80.9,164.5,80.9,164.5z"/>
	<path class="st1" d="M123.4,114.6"/>
	<path class="st2" d="M124.2,115.1c0,0,1.7-3.5,1.9-6.1c0.2-2.6,0.6-5.2-1.9-5.6c-2.4-0.4-12.5-0.5-16-0.4c-3.5,0.1-6.9-0.5-7.2-4.4
		c-0.2-3.9,0.6-9.3,3.3-12.4c2.7-3.1,6.3-3.7,8.9-3.7c2.6,0,5.1,0.6,7.6,2.2c2.5,1.6,4.2,3.1,5.6,6.8c1.4,3.8,3.2,11.6,3.2,11.6"/>
	<path class="st2" d="M140.5,132.3c0,0,4.4-3.9,10.1-3.9c5.7,0,6.3,1.3,6.7,2.8c0.4,1.5,1.5,6.3,2.2,10.3c0.7,3.9,2.2,7.3,3,7.7
		s7.7-1.1,9.8-3.9c2.1-2.8,2.4-6.7,1.4-9.9c-0.2-0.7-0.5-1.4-0.9-2c-1.4-2.5-2.9-4.4-5.7-6.7c0,0-1.7-1.2-4.3-1.6
		c-2.6-0.4-7.9,0.1-7.9,0.1"/>
	<path class="st2" d="M123.9,103.4c2.4,0.2,8.9-0.6,10.5,0.3c1.6,1,3.7,2.8,4,8.5c0.3,5.7-5.2,10.1-5.2,10.1s5.1-6.1,10.7-5.9
		c5.7,0.3,7.7,3,8.6,4.2c1,1.2,4.2,9.4,4.2,9.4"/>
	<path class="st3" d="M172.3,132.6c0,0,2.7-1.4,2.8-3.2c0.1-1.9,0.5-4.5-3.6-7.7c-4.1-3.3-11.1-5.2-13.1-7.4
		c-1.5-1.6-2.4-6.4-4.4-8.5c-2-2.1-3-2.8-5.7-2.8s-9.9,3.8-9.9,3.8s5.4-6.6,4.9-9.7c-0.5-3.2-2-5.2-4.1-7c-2.1-1.8-7.1-5.4-9.3-6
		c-0.8-0.2-2.1-0.6-3.8,0c-0.6,0.2-3,2.3-3,2.3"/>
	<path class="st2" d="M153.2,121.7c0,0,3.6-1.6,7.2-1.4c3.6,0.2,6.3,0.6,6.5,0.7c0.2,0.1,4.8,0.7,6.5,2.4"/>
</g>
</svg>
