<?xml version="1.0" encoding="utf-8"?>
<!-- Generator: Adobe Illustrator 25.2.3, SVG Export Plug-In . SVG Version: 6.00 Build 0)  -->
<svg version="1.1" xmlns="http://www.w3.org/2000/svg" xmlns:xlink="http://www.w3.org/1999/xlink" x="0px" y="0px"
	 viewBox="0 0 256 256" style="enable-background:new 0 0 256 256;" xml:space="preserve">
<style type="text/css">
	.st0{fill:#E5D1B9;}
	.st1{fill:#FAF7EA;}
	.st2{fill:none;}
	.st3{fill:#4B7D27;}
	.st4{fill:#55A32F;}
	.st5{fill:none;stroke:#000000;stroke-width:9.9716;}
	.st6{fill:none;stroke:#000000;stroke-width:9.9716;stroke-linecap:round;}
	.st7{fill:none;stroke:#000000;stroke-width:9.9716;stroke-linecap:round;stroke-linejoin:round;}
</style>
<g id="Layer_2_1_">
	<path class="st0" d="M10.7,219.1c0,0,3.2,3,8,5.2c4.5,2.2,11.5,5.7,20.2,6.5c9,1,12.2,1.2,17,2.5s14.2,7.5,30.2,7.7
		c16,0.2,32.7-3,44.9-12.2c12.2-9.2,20.2-18.7,25.9-28.4c5-8.7,9.7-21.7,10-32.9c0-11.2-4.7-25.7-13-38.4
		c-8.5-12.7-22.2-25.2-35.1-33.4C105.7,87.8,95,84,80,84s-34.4,7.7-46.6,20.4c-12.7,13-17.7,22.2-21.2,39.9
		c-2.5,12.2-2.5,27.2,0.5,37.4c2,6.7,6.5,12.5,7,18.7c0.2,4-2,8-4.5,11c-2.5,3-4.7,4-5,5.7C10.4,219.1,10.7,219.1,10.7,219.1z"/>
	<path class="st1" d="M58.1,220.8c20.2,4.5,40.9,3.8,50.6,2c12.3-2.3,37.4-9.3,51.7-34.3c5.1-9,5.8-21,4.1-32.1
		c-1.6-10.8-2.4-10.6-10.7-23.3c-8.5-12.7-22.2-25.2-35.1-33.4c-13-8-23.7-11.7-38.6-11.7s-34.4,7.7-46.6,20.4
		c-12.7,13-17.7,22.2-21.2,39.9c-2.5,12.2-2.5,27.2,0.5,37.4c2,6.7,4.4,11.4,8.3,16.3C27.1,209.5,46.5,218.3,58.1,220.8z"/>
	<path class="st2" d="M116.6,94.7"/>
	<path class="st3" d="M118.6,96c0,0,3.4-2.5,4.2-12s0-15.9,0-15.9h11.5l12.4,1.4l5.5,8.5l1.3,16.7l-1.2,6.9l14.4-1.9l8.9,1.9l8.2,6
		c0,0,9,9.2,9.3,9.9c0.3,0.7,0,11.4,0,11.4l-18,4.1l-16.5,4.8l-10.5-16.1l-11.5-12.1L122,98L118.6,96z"/>
	<polygon class="st4" points="132.1,66.1 125.2,35.2 104.5,17.2 84.8,14.7 65,25.4 61,46.7 64.1,62.3 85.7,66.1 	"/>
	<path class="st4" d="M195.2,122.2l26.3,0.6l19.8,20.2l2,15.2c0,0-4.3,15.5-5,15.7c-0.7,0.2-20,7.3-20,7.3l-10-7l-8.4-41
		L195.2,122.2z"/>
	<path class="st4" d="M190.9,112.4l17.9-3.5l21-1c0,0-26.1-14-26.6-14.7c-0.5-0.8-9.9-21.6-9.9-21.6l-14.6-5.8l-19.4,4.7l-6.5,9.3
		v17.5l20.1,2.4L190.9,112.4z"/>
	<polygon class="st4" points="132.1,65 121.4,28.3 118.6,20.3 132.1,17.9 159.3,36.7 166.7,53 160.8,65.8 151.9,74.5 140.6,66.5 	
		"/>
	<polygon class="st3" points="191.3,113.5 216.1,107.7 235.8,113.5 245.5,125.4 239.9,140.3 225.2,124.6 202.3,120.5 193.4,120.5 	
		"/>
</g>
<g id="Layer_2_copy">
	<g>
		<path class="st5" d="M10.7,219.1c0,0,3.2,3,8,5.2c4.5,2.2,11.5,5.7,20.2,6.5c9,1,12.2,1.2,17,2.5s14.2,7.5,30.2,7.7
			c16,0.2,32.7-3,44.9-12.2c12.2-9.2,20.2-18.7,25.9-28.4c5-8.7,9.7-21.7,10-32.9c0-11.2-4.7-25.7-13-38.4
			c-8.5-12.7-22.2-25.2-35.1-33.4C105.7,87.8,95,84,80,84s-34.4,7.7-46.6,20.4c-12.7,13-17.7,22.2-21.2,39.9
			c-2.5,12.2-2.5,27.2,0.5,37.4c2,6.7,6.5,12.5,7,18.7c0.2,4-2,8-4.5,11c-2.5,3-4.7,4-5,5.7C10.4,219.1,10.7,219.1,10.7,219.1z"/>
		<path class="st2" d="M116.6,94.7"/>
		<path class="st6" d="M118.6,96c0,0,4.2-8.7,4.7-15.2c0.5-6.5,1.5-13-4.7-14c-6-1-31.2-1.2-39.9-1c-8.7,0.2-17.2-1.2-17.9-11
			c-0.5-9.7,1.5-23.2,8.2-30.9c6.7-7.7,15.7-9.2,22.2-9.2c6.5,0,12.7,1.5,18.9,5.5s10.5,7.7,14,17c3.5,9.5,8,28.9,8,28.9"/>
		<path class="st6" d="M159.3,138.9c0,0,11-9.7,25.2-9.7c14.2,0,15.7,3.2,16.7,7c1,3.7,3.7,15.7,5.5,25.7c1.7,9.7,5.5,18.2,7.5,19.2
			c2,1,19.2-2.7,24.4-9.7c5.2-7,6-16.7,3.5-24.7c-0.5-1.7-1.2-3.5-2.2-5c-3.5-6.2-7.2-11-14.2-16.7c0,0-4.2-3-10.7-4
			s-19.7,0.2-19.7,0.2"/>
		<path class="st6" d="M117.9,66.8c6,0.5,22.2-1.5,26.2,0.7c4,2.5,9.2,7,10,21.2c0.7,14.2-13,25.2-13,25.2s12.7-15.2,26.7-14.7
			c14.2,0.7,19.2,7.5,21.4,10.5c2.5,3,10.5,23.4,10.5,23.4"/>
		<path class="st7" d="M238.5,139.6c0,0,6.7-3.5,7-8c0.2-4.7,1.2-11.2-9-19.2c-10.2-8.2-27.7-13-32.7-18.4c-3.7-4-6-16-11-21.2
			c-5-5.2-7.5-7-14.2-7S154,75.3,154,75.3s13.5-16.5,12.2-24.2c-1.2-8-5-13-10.2-17.5c-5.2-4.5-17.7-13.5-23.2-15
			c-2-0.5-5.2-1.5-9.5,0c-1.5,0.5-7.5,5.7-7.5,5.7"/>
		<path class="st6" d="M190.9,112.4c0,0,9-4,17.9-3.5c9,0.5,15.7,1.5,16.2,1.7c0.5,0.2,12,1.7,16.2,6"/>
	</g>
</g>
</svg>
